<?xml version="1.0" standalone="no"?>
<!DOCTYPE svg PUBLIC "-//W3C//DTD SVG 20010904//EN"
 "http://www.w3.org/TR/2001/REC-SVG-20010904/DTD/svg10.dtd">
<svg version="1.0" xmlns="http://www.w3.org/2000/svg"
 width="700.000000pt" height="700.000000pt" viewBox="0 0 700.000000 700.000000"
 preserveAspectRatio="xMidYMid meet">
<metadata>
Created by potrace 1.14, written by Peter Selinger 2001-2017
</metadata>
<g transform="translate(0.000000,700.000000) scale(0.100000,-0.100000)"
fill="#000000" stroke="none">
<path d="M0 3500 l0 -3500 3500 0 3500 0 0 3500 0 3500 -3500 0 -3500 0 0
-3500z m3616 1700 c694 -55 1085 -366 1165 -929 26 -187 -8 -471 -76 -639 -93
-229 -289 -434 -530 -555 -145 -72 -374 -135 -567 -156 -177 -20 -540 -11
-620 15 -17 5 -18 -28 -18 -745 l0 -751 -240 0 -240 0 0 1848 0 1849 118 16
c355 49 746 67 1008 47z"/>
<path d="M3275 4823 c-79 -3 -248 -21 -282 -29 l-23 -6 0 -728 0 -727 58 -13
c31 -7 153 -15 269 -17 171 -4 233 -2 315 12 206 34 352 101 475 218 127 121
193 263 215 462 44 400 -155 693 -536 790 -90 23 -317 48 -391 43 -16 -1 -61
-3 -100 -5z"/>
</g>
</svg>
